<svg xmlns="http://www.w3.org/2000/svg" xmlns:xlink="http://www.w3.org/1999/xlink" width="250" zoomAndPan="magnify" viewBox="0 0 187.5 112.499997" height="150" preserveAspectRatio="xMidYMid meet" version="1.0"><defs><g/><clipPath id="30484b71b3"><path d="M 0.164062 0 L 186.835938 0 L 186.835938 112.003906 L 0.164062 112.003906 Z M 0.164062 0 " clip-rule="nonzero"/></clipPath><clipPath id="0ebfb42ef5"><path d="M 20.582031 6.015625 L 69.59375 6.015625 L 69.59375 54.976562 L 20.582031 54.976562 Z M 20.582031 6.015625 " clip-rule="nonzero"/></clipPath><clipPath id="adea92f42b"><path d="M 0.175781 86.195312 L 41.261719 86.195312 L 41.261719 94.925781 L 0.175781 94.925781 Z M 0.175781 86.195312 " clip-rule="nonzero"/></clipPath></defs><g clip-path="url(#30484b71b3)"><path fill="#ffffff" d="M 0.164062 0 L 186.835938 0 L 186.835938 112.003906 L 0.164062 112.003906 Z M 0.164062 0 " fill-opacity="1" fill-rule="nonzero"/><path fill="#ffffff" d="M 0.164062 0 L 186.835938 0 L 186.835938 112.003906 L 0.164062 112.003906 Z M 0.164062 0 " fill-opacity="1" fill-rule="nonzero"/></g><g clip-path="url(#0ebfb42ef5)"><path fill="#231f20" d="M 69.59375 35.25 C 69.59375 35.25 65.078125 22.835938 48.710938 26.238281 C 48.710938 26.238281 49.742188 24.183594 52.34375 21.582031 L 50.066406 21.195312 L 52.695312 21.234375 C 53.511719 20.449219 54.46875 19.621094 55.578125 18.789062 L 53.574219 18.449219 L 55.992188 18.484375 C 57.085938 17.695312 58.320312 16.902344 59.714844 16.152344 L 57.082031 15.703125 L 60.46875 15.753906 C 61.585938 15.183594 62.792969 14.640625 64.101562 14.136719 C 64.101562 14.136719 53.777344 11.871094 47.167969 21.285156 C 45.691406 11.34375 36.160156 6.015625 36.160156 6.015625 C 37.820312 8.121094 39.117188 10.238281 40.128906 12.292969 L 43.507812 15.515625 L 40.730469 13.582031 C 41.601562 15.558594 42.21875 17.457031 42.648438 19.210938 L 45.089844 22.4375 L 42.898438 20.320312 C 43.015625 20.871094 43.109375 21.402344 43.191406 21.914062 C 36.367188 11.984375 25.679688 14.59375 25.679688 14.59375 C 27 15.066406 28.222656 15.582031 29.351562 16.125 L 32.738281 15.992188 L 30.117188 16.503906 C 31.523438 17.222656 32.78125 17.984375 33.894531 18.75 L 36.308594 18.65625 L 34.316406 19.042969 C 35.445312 19.847656 36.421875 20.652344 37.253906 21.421875 L 39.878906 21.320312 L 37.617188 21.757812 C 40.277344 24.296875 41.359375 26.328125 41.359375 26.328125 C 24.914062 23.316406 20.695312 35.835938 20.695312 35.835938 C 22.21875 34.742188 23.847656 33.894531 25.492188 33.238281 L 28.863281 29.710938 L 26.722656 32.785156 C 28.734375 32.09375 30.742188 31.675781 32.59375 31.425781 L 35.125 28.773438 L 33.34375 31.332031 C 35.121094 31.128906 36.722656 31.082031 38.007812 31.097656 L 40.023438 28.988281 L 38.546875 31.105469 C 40.15625 31.148438 41.140625 31.28125 41.140625 31.28125 C 29.105469 39.402344 32.601562 54.949219 32.601562 54.949219 C 33.101562 52.085938 33.875 49.507812 34.804688 47.207031 L 34.964844 42.152344 L 35.414062 45.789062 C 36.382812 43.65625 37.472656 41.785156 38.582031 40.167969 L 39.425781 35.863281 L 39.296875 39.160156 C 41.59375 36.039062 43.859375 33.996094 45.113281 32.984375 C 46.394531 33.96875 48.707031 35.953125 51.082031 39.019531 L 50.871094 35.726562 L 51.820312 40.007812 C 52.964844 41.597656 54.101562 43.445312 55.121094 45.550781 L 55.484375 41.90625 L 55.761719 46.957031 C 56.75 49.234375 57.585938 51.792969 58.152344 54.644531 C 58.152344 54.644531 61.273438 39.019531 49.046875 31.1875 C 49.046875 31.1875 50.03125 31.03125 51.636719 30.949219 L 50.109375 28.867188 L 52.171875 30.925781 C 53.457031 30.882812 55.0625 30.890625 56.84375 31.050781 L 55 28.535156 L 57.59375 31.125 C 59.453125 31.332031 61.472656 31.703125 63.5 32.34375 L 61.28125 29.320312 L 64.738281 32.769531 C 66.398438 33.386719 68.046875 34.195312 69.59375 35.25 " fill-opacity="1" fill-rule="nonzero"/></g><path fill="#231f20" d="M 43.628906 29.222656 C 43.628906 29.222656 43.648438 29.21875 43.6875 29.210938 C 43.730469 29.199219 43.765625 29.195312 43.824219 29.183594 C 43.855469 29.179688 43.886719 29.175781 43.921875 29.167969 C 43.949219 29.167969 43.980469 29.164062 44.015625 29.164062 C 44.078125 29.160156 44.140625 29.160156 44.1875 29.171875 C 44.238281 29.183594 44.273438 29.207031 44.292969 29.238281 C 44.308594 29.273438 44.328125 29.3125 44.351562 29.351562 C 44.390625 29.4375 44.4375 29.523438 44.492188 29.640625 C 44.703125 30.09375 45 30.75 45.328125 31.609375 C 45.652344 32.46875 46.003906 33.523438 46.332031 34.757812 C 46.652344 35.988281 46.953125 37.398438 47.191406 38.945312 C 47.425781 40.492188 47.601562 42.183594 47.691406 43.972656 C 47.777344 45.765625 47.773438 47.660156 47.664062 49.617188 C 47.648438 49.863281 47.632812 50.109375 47.617188 50.355469 C 47.605469 50.480469 47.597656 50.601562 47.585938 50.726562 L 47.574219 50.910156 L 47.554688 51.117188 C 47.527344 51.359375 47.503906 51.601562 47.480469 51.84375 L 47.445312 52.210938 L 47.394531 52.59375 C 47.324219 53.109375 47.261719 53.632812 47.167969 54.136719 C 47.125 54.390625 47.082031 54.644531 47.039062 54.902344 C 46.984375 55.15625 46.933594 55.410156 46.878906 55.667969 C 46.671875 56.6875 46.40625 57.707031 46.109375 58.722656 C 45.953125 59.226562 45.792969 59.734375 45.621094 60.238281 L 45.351562 60.988281 L 45.21875 61.363281 L 45.070312 61.730469 C 44.292969 63.710938 43.359375 65.636719 42.285156 67.445312 C 42.148438 67.671875 42.011719 67.894531 41.875 68.117188 C 41.734375 68.339844 41.601562 68.566406 41.453125 68.78125 C 41.160156 69.210938 40.882812 69.652344 40.574219 70.066406 C 40.421875 70.273438 40.269531 70.484375 40.121094 70.691406 L 40.0625 70.769531 L 40 70.855469 L 39.886719 71.003906 L 39.664062 71.292969 C 39.503906 71.496094 39.347656 71.699219 39.1875 71.898438 C 39.027344 72.09375 38.871094 72.289062 38.710938 72.480469 C 37.4375 74.011719 36.136719 75.402344 34.890625 76.679688 C 33.648438 77.929688 32.476562 79.117188 31.398438 80.210938 C 30.332031 81.296875 29.382812 82.289062 28.582031 83.1875 C 27.777344 84.089844 27.113281 84.886719 26.585938 85.554688 C 26.0625 86.222656 25.683594 86.761719 25.421875 87.132812 C 25.171875 87.503906 25.035156 87.699219 25.035156 87.699219 L 21.605469 85.398438 C 21.605469 85.398438 21.761719 85.175781 22.054688 84.757812 C 22.359375 84.347656 22.800781 83.746094 23.398438 83.015625 C 23.996094 82.28125 24.746094 81.425781 25.632812 80.488281 C 26.523438 79.550781 27.542969 78.53125 28.671875 77.460938 C 29.785156 76.40625 30.996094 75.261719 32.273438 74.050781 C 33.527344 72.847656 34.828125 71.582031 36.066406 70.207031 C 36.21875 70.035156 36.371094 69.863281 36.527344 69.6875 C 36.675781 69.515625 36.824219 69.339844 36.972656 69.167969 L 37.207031 68.882812 L 37.324219 68.742188 L 37.375 68.683594 L 37.425781 68.617188 C 37.570312 68.429688 37.71875 68.246094 37.863281 68.0625 C 38.445312 67.320312 38.992188 66.535156 39.53125 65.734375 C 40.59375 64.125 41.535156 62.394531 42.339844 60.597656 C 43.148438 58.804688 43.796875 56.9375 44.300781 55.058594 C 44.363281 54.824219 44.425781 54.589844 44.484375 54.355469 C 44.539062 54.117188 44.59375 53.882812 44.644531 53.648438 C 44.761719 53.175781 44.839844 52.714844 44.929688 52.253906 L 44.996094 51.90625 L 45.050781 51.542969 C 45.089844 51.300781 45.125 51.058594 45.164062 50.816406 L 45.1875 50.65625 L 45.210938 50.480469 L 45.253906 50.128906 C 45.28125 49.894531 45.308594 49.660156 45.335938 49.425781 C 45.539062 47.5625 45.628906 45.742188 45.644531 44.015625 C 45.65625 42.292969 45.578125 40.660156 45.441406 39.160156 C 45.296875 37.664062 45.085938 36.300781 44.847656 35.101562 C 44.601562 33.90625 44.324219 32.878906 44.0625 32.046875 C 43.796875 31.214844 43.550781 30.570312 43.378906 30.144531 C 43.339844 30.039062 43.292969 29.9375 43.257812 29.855469 C 43.242188 29.8125 43.222656 29.773438 43.207031 29.738281 C 43.195312 29.703125 43.203125 29.660156 43.226562 29.617188 C 43.25 29.570312 43.285156 29.523438 43.332031 29.476562 C 43.355469 29.453125 43.375 29.433594 43.394531 29.414062 C 43.421875 29.390625 43.449219 29.367188 43.472656 29.347656 C 43.519531 29.308594 43.542969 29.285156 43.582031 29.257812 C 43.613281 29.234375 43.628906 29.222656 43.628906 29.222656 " fill-opacity="1" fill-rule="nonzero"/><path fill="#231f20" d="M 15.96875 39.710938 C 15.96875 39.710938 15.992188 39.707031 16.035156 39.699219 C 16.082031 39.6875 16.132812 39.691406 16.207031 39.6875 C 16.363281 39.671875 16.539062 39.703125 16.730469 39.78125 C 16.824219 39.820312 16.914062 39.878906 16.996094 39.960938 C 17.074219 40.042969 17.152344 40.136719 17.242188 40.238281 C 17.421875 40.4375 17.625 40.671875 17.847656 40.9375 C 18.738281 41.992188 19.953125 43.554688 21.226562 45.550781 C 22.5 47.546875 23.824219 49.980469 24.972656 52.707031 C 25.550781 54.070312 26.085938 55.503906 26.558594 56.984375 C 27.035156 58.464844 27.441406 59.992188 27.785156 61.535156 C 28.128906 63.074219 28.40625 64.628906 28.613281 66.171875 L 28.636719 66.320312 L 28.722656 66.742188 C 28.757812 66.925781 28.792969 67.121094 28.832031 67.3125 C 28.902344 67.699219 28.96875 68.078125 29.03125 68.457031 C 29.144531 69.21875 29.242188 69.976562 29.308594 70.730469 C 29.378906 71.484375 29.421875 72.230469 29.4375 72.96875 C 29.453125 73.703125 29.4375 74.425781 29.390625 75.132812 C 29.347656 75.839844 29.273438 76.53125 29.179688 77.195312 C 29.085938 77.863281 28.953125 78.5 28.816406 79.113281 C 28.671875 79.722656 28.511719 80.304688 28.339844 80.855469 C 28.257812 81.128906 28.164062 81.390625 28.074219 81.648438 C 27.980469 81.902344 27.890625 82.152344 27.796875 82.390625 C 27.421875 83.34375 27.035156 84.148438 26.695312 84.796875 C 26.355469 85.445312 26.0625 85.941406 25.859375 86.273438 C 25.652344 86.605469 25.542969 86.78125 25.542969 86.78125 L 22.109375 84.480469 C 22.109375 84.480469 22.214844 84.332031 22.410156 84.054688 C 22.601562 83.777344 22.871094 83.363281 23.210938 82.828125 C 23.292969 82.695312 23.378906 82.554688 23.46875 82.40625 C 23.558594 82.257812 23.644531 82.097656 23.742188 81.933594 C 23.925781 81.605469 24.125 81.246094 24.320312 80.855469 C 24.421875 80.664062 24.515625 80.457031 24.617188 80.25 C 24.714844 80.039062 24.8125 79.820312 24.910156 79.597656 C 25.109375 79.144531 25.300781 78.664062 25.480469 78.15625 C 25.839844 77.136719 26.164062 76.003906 26.40625 74.765625 C 26.53125 74.148438 26.621094 73.5 26.707031 72.835938 C 26.789062 72.171875 26.851562 71.484375 26.894531 70.78125 C 26.933594 70.074219 26.949219 69.355469 26.949219 68.621094 C 26.953125 68.253906 26.949219 67.878906 26.941406 67.511719 C 26.941406 67.324219 26.9375 67.144531 26.929688 66.949219 L 26.921875 66.664062 L 26.917969 66.519531 C 26.914062 66.480469 26.90625 66.429688 26.902344 66.382812 C 26.726562 64.886719 26.484375 63.375 26.183594 61.875 C 25.878906 60.375 25.511719 58.886719 25.074219 57.441406 C 24.640625 56 24.148438 54.597656 23.613281 53.265625 C 22.546875 50.597656 21.304688 48.210938 20.101562 46.25 C 18.902344 44.285156 17.75 42.75 16.90625 41.707031 C 16.695312 41.449219 16.503906 41.21875 16.335938 41.019531 C 16.25 40.921875 16.171875 40.828125 16.101562 40.746094 C 16.03125 40.660156 15.988281 40.5625 15.957031 40.46875 C 15.90625 40.277344 15.894531 40.097656 15.925781 39.945312 C 15.933594 39.871094 15.933594 39.820312 15.953125 39.777344 C 15.964844 39.734375 15.96875 39.710938 15.96875 39.710938 " fill-opacity="1" fill-rule="nonzero"/><path fill="#231f20" d="M 18.757812 38.453125 C 19.234375 37.84375 19.75 37.308594 20.292969 36.839844 L 20.898438 35.773438 L 20.75 36.460938 C 21.445312 35.910156 22.167969 35.464844 22.886719 35.097656 L 23.386719 34.394531 L 23.207031 34.9375 C 23.84375 34.632812 24.46875 34.390625 25.054688 34.199219 L 25.992188 32.976562 L 25.605469 34.03125 C 27.394531 33.523438 28.71875 33.480469 28.734375 33.476562 C 22.3125 29.304688 17.511719 36.566406 17.511719 36.566406 C 17.730469 35.753906 17.996094 35.023438 18.292969 34.363281 L 18.421875 33.074219 L 18.566406 33.78125 C 19.15625 32.625 19.84375 31.707031 20.542969 30.984375 L 20.808594 29.871094 L 20.863281 30.664062 C 22.78125 28.832031 24.675781 28.386719 24.675781 28.386719 C 16.246094 27.335938 15.828125 35.65625 15.828125 35.65625 C 12.5625 32.019531 8.8125 32.378906 8.8125 32.378906 C 9.476562 32.570312 10.066406 32.835938 10.585938 33.136719 L 11.316406 33.140625 L 10.835938 33.289062 C 11.53125 33.726562 12.097656 34.230469 12.542969 34.707031 L 13.105469 34.859375 L 12.695312 34.875 C 13.503906 35.792969 13.863281 36.578125 13.863281 36.578125 C 7.515625 31.886719 1.765625 36.324219 1.765625 36.324219 C 2.820312 36.011719 3.898438 35.882812 4.941406 35.875 L 5.648438 35.4375 L 5.269531 35.875 C 6.03125 35.886719 6.769531 35.960938 7.464844 36.074219 L 8.5625 35.695312 L 7.9375 36.15625 C 8.632812 36.285156 9.273438 36.445312 9.839844 36.609375 L 10.632812 36.339844 L 10.140625 36.699219 C 11.425781 37.097656 12.242188 37.492188 12.242188 37.492188 C 3.179688 36.019531 1.007812 42.324219 1.007812 42.324219 C 1.691406 41.699219 2.464844 41.21875 3.273438 40.855469 L 4.085938 39.675781 L 3.789062 40.640625 C 5.269531 40.066406 6.828125 39.839844 8.148438 39.777344 L 8.96875 39.265625 L 8.542969 39.761719 C 10.214844 39.714844 11.417969 39.910156 11.417969 39.910156 C 0.90625 41.957031 3.375 52.941406 3.375 52.941406 C 4.054688 50.289062 4.933594 48.3125 5.839844 46.847656 L 6.117188 45.523438 L 6.195312 46.304688 C 7.042969 45.0625 7.898438 44.238281 8.636719 43.691406 L 8.816406 42.820312 L 8.886719 43.515625 C 9.957031 42.785156 10.714844 42.65625 10.714844 42.65625 C 5.664062 48.738281 9.242188 55.742188 9.242188 55.742188 C 9.144531 53.179688 9.429688 51.042969 9.894531 49.285156 L 9.628906 47.832031 L 10.070312 48.671875 C 10.476562 47.339844 10.980469 46.25 11.488281 45.378906 L 11.238281 44.003906 L 11.742188 44.960938 C 12.800781 43.285156 13.789062 42.546875 13.789062 42.546875 C 9.78125 50.074219 14.011719 55.175781 14.011719 55.175781 C 13.847656 54.128906 13.78125 53.144531 13.78125 52.230469 L 13.195312 51.074219 L 13.792969 51.683594 C 13.8125 50.996094 13.871094 50.355469 13.953125 49.765625 L 13.394531 48.660156 L 14.023438 49.304688 C 14.117188 48.726562 14.234375 48.207031 14.355469 47.753906 L 13.589844 46.246094 L 14.511719 47.195312 C 14.816406 46.195312 15.097656 45.636719 15.097656 45.636719 L 17.421875 41.460938 C 18.949219 40.898438 20.367188 40.589844 21.652344 40.445312 L 22.359375 39.671875 L 22.015625 40.40625 C 23.195312 40.300781 24.257812 40.332031 25.175781 40.433594 L 25.75 40.089844 L 25.414062 40.464844 C 27.691406 40.757812 29.015625 41.472656 29.015625 41.472656 C 25.808594 36.265625 18.757812 38.453125 18.757812 38.453125 " fill-opacity="1" fill-rule="nonzero"/><path fill="#231f20" d="M 17.777344 41.785156 C 17.777344 42.429688 17.253906 42.949219 16.609375 42.949219 C 15.964844 42.949219 15.441406 42.429688 15.441406 41.785156 C 15.441406 41.140625 15.964844 40.621094 16.609375 40.621094 C 17.253906 40.621094 17.777344 41.140625 17.777344 41.785156 " fill-opacity="1" fill-rule="nonzero"/><path fill="#231f20" d="M 19.90625 41.277344 C 19.90625 41.921875 19.386719 42.441406 18.742188 42.441406 C 18.097656 42.441406 17.574219 41.921875 17.574219 41.277344 C 17.574219 40.636719 18.097656 40.113281 18.742188 40.113281 C 19.386719 40.113281 19.90625 40.636719 19.90625 41.277344 " fill-opacity="1" fill-rule="nonzero"/><path fill="#231f20" d="M 18.824219 42.949219 C 18.824219 43.441406 18.421875 43.839844 17.929688 43.839844 C 17.4375 43.839844 17.039062 43.441406 17.039062 42.949219 C 17.039062 42.457031 17.4375 42.058594 17.929688 42.058594 C 18.421875 42.058594 18.824219 42.457031 18.824219 42.949219 " fill-opacity="1" fill-rule="nonzero"/><path fill="#231f20" d="M 44.929688 33.738281 C 44.929688 34.613281 44.222656 35.320312 43.34375 35.320312 C 42.46875 35.320312 41.757812 34.613281 41.757812 33.738281 C 41.757812 32.867188 42.46875 32.160156 43.34375 32.160156 C 44.222656 32.160156 44.929688 32.867188 44.929688 33.738281 " fill-opacity="1" fill-rule="nonzero"/><path fill="#231f20" d="M 47.828125 33.050781 C 47.828125 33.925781 47.117188 34.632812 46.242188 34.632812 C 45.363281 34.632812 44.65625 33.925781 44.65625 33.050781 C 44.65625 32.179688 45.363281 31.472656 46.242188 31.472656 C 47.117188 31.472656 47.828125 32.179688 47.828125 33.050781 " fill-opacity="1" fill-rule="nonzero"/><path fill="#231f20" d="M 46.351562 35.320312 C 46.351562 35.988281 45.808594 36.53125 45.140625 36.53125 C 44.46875 36.53125 43.925781 35.988281 43.925781 35.320312 C 43.925781 34.652344 44.46875 34.113281 45.140625 34.113281 C 45.808594 34.113281 46.351562 34.652344 46.351562 35.320312 " fill-opacity="1" fill-rule="nonzero"/><path fill="#231f20" d="M 49.378906 85.351562 C 38.300781 100.847656 16.414062 79.363281 2.324219 86.109375 C 6.714844 82.09375 11.582031 81.550781 16.660156 82.359375 C 18.789062 82.699219 20.957031 83.273438 23.140625 83.929688 C 24.394531 84.304688 25.65625 84.707031 26.921875 85.109375 C 31.773438 86.644531 36.660156 88.128906 41.375 87.875 C 44.113281 87.730469 46.792969 87 49.378906 85.351562 " fill-opacity="1" fill-rule="nonzero"/><g clip-path="url(#adea92f42b)"><path fill="#231f20" d="M 0.175781 89.308594 C 10.355469 79.109375 31.132812 98.859375 41.226562 91.445312 C 32.132812 101.917969 9.375 85.003906 0.175781 89.308594 " fill-opacity="1" fill-rule="nonzero"/></g><path fill="#231f20" d="M 41.375 87.875 C 36.660156 88.128906 31.773438 86.644531 26.921875 85.109375 C 26.785156 84.578125 26.46875 83.875 25.847656 82.941406 C 27.363281 82.421875 28.847656 81.957031 29.78125 81.710938 C 36.433594 79.945312 41.019531 85.539062 41.375 87.875 " fill-opacity="1" fill-rule="nonzero"/><path fill="#231f20" d="M 26.921875 85.109375 C 25.65625 84.707031 24.394531 84.304688 23.140625 83.929688 C 20.957031 83.273438 18.789062 82.699219 16.660156 82.359375 C 19.101562 81.128906 23.328125 79.550781 25.28125 82.144531 C 25.492188 82.425781 25.683594 82.691406 25.847656 82.941406 C 26.46875 83.875 26.785156 84.578125 26.921875 85.109375 " fill-opacity="1" fill-rule="nonzero"/><g fill="#000000" fill-opacity="1"><g transform="translate(58.196805, 62.891211)"><g><path d="M 13.3125 -6.960938 C 11.195312 -6.960938 9.683594 -8.472656 9.683594 -10.589844 C 9.683594 -12.707031 11.195312 -14.222656 13.3125 -14.222656 C 15.433594 -14.222656 17.246094 -12.558594 17.246094 -12.558594 L 20.878906 -18.308594 C 20.878906 -18.308594 18.15625 -21.636719 12.40625 -21.636719 C 6.050781 -21.636719 1.210938 -16.792969 1.210938 -10.589844 C 1.210938 -4.386719 6.050781 0.453125 12.40625 0.453125 C 18.457031 0.453125 21.179688 -3.175781 21.179688 -3.175781 L 21.179688 -10.589844 L 13.917969 -10.589844 L 13.917969 -6.960938 C 13.917969 -6.960938 13.617188 -6.960938 13.3125 -6.960938 Z M 13.3125 -6.960938 "/></g></g></g><g fill="#000000" fill-opacity="1"><g transform="translate(80.586433, 62.891211)"><g><path d="M 19.367188 -21.179688 L 12.40625 -21.179688 L 10.136719 -9.53125 L 8.472656 -21.179688 L 0.300781 -21.179688 L 4.839844 0 L 13.617188 0 L 15.886719 -10.742188 L 18.15625 0 L 26.929688 0 L 31.46875 -21.179688 L 23.300781 -21.179688 L 21.636719 -9.53125 Z M 19.367188 -21.179688 "/></g></g></g><g fill="#000000" fill-opacity="1"><g transform="translate(112.355499, 62.891211)"><g><path d="M 16.792969 -21.179688 L 6.503906 -21.179688 L 0.300781 0 L 9.078125 0 L 9.683594 -3.027344 L 13.617188 -3.027344 L 14.222656 0 L 22.996094 0 C 22.996094 0 16.824219 -21.058594 16.792969 -21.179688 Z M 10.589844 -7.867188 L 11.648438 -13.3125 L 12.707031 -7.867188 Z M 10.589844 -7.867188 "/></g></g></g><g fill="#000000" fill-opacity="1"><g transform="translate(135.652812, 62.891211)"><g><path d="M 9.683594 -6.355469 L 9.683594 -14.828125 L 10.894531 -14.828125 C 13.164062 -14.828125 14.523438 -13.464844 14.523438 -10.589844 C 14.523438 -7.714844 13.164062 -6.355469 10.894531 -6.355469 Z M 22.996094 -10.589844 C 22.996094 -17.097656 18.941406 -21.484375 10.894531 -21.484375 C 6.050781 -21.484375 1.816406 -21.179688 1.816406 -21.179688 L 1.816406 0 C 1.816406 0 6.050781 0.300781 10.894531 0.300781 C 18.941406 0.300781 22.996094 -4.085938 22.996094 -10.589844 Z M 22.996094 -10.589844 "/></g></g></g><g fill="#000000" fill-opacity="1"><g transform="translate(159.857824, 62.891211)"><g><path d="M 16.792969 -21.179688 L 6.503906 -21.179688 L 0.300781 0 L 9.078125 0 L 9.683594 -3.027344 L 13.617188 -3.027344 L 14.222656 0 L 22.996094 0 C 22.996094 0 16.824219 -21.058594 16.792969 -21.179688 Z M 10.589844 -7.867188 L 11.648438 -13.3125 L 12.707031 -7.867188 Z M 10.589844 -7.867188 "/></g></g></g><g fill="#000000" fill-opacity="1"><g transform="translate(72.728232, 86.310097)"><g><path d="M 0.4375 -13.953125 C 0.4375 -14.222656 0.617188 -14.457031 0.984375 -14.65625 L 4.15625 -15.90625 C 4.226562 -15.9375 4.332031 -15.953125 4.46875 -15.953125 C 4.601562 -15.953125 4.722656 -15.890625 4.828125 -15.765625 C 4.941406 -15.640625 5.0625 -15.578125 5.1875 -15.578125 C 5.3125 -15.578125 5.578125 -15.625 5.984375 -15.71875 C 6.390625 -15.820312 6.9375 -15.953125 7.625 -16.109375 C 8.3125 -16.265625 9.082031 -16.414062 9.9375 -16.5625 C 11.925781 -16.90625 14 -17.078125 16.15625 -17.078125 C 18.695312 -17.078125 20.519531 -16.882812 21.625 -16.5 C 22.0625 -16.332031 22.425781 -16.109375 22.71875 -15.828125 C 23.019531 -15.554688 23.171875 -15.21875 23.171875 -14.8125 C 23.171875 -14.582031 23.007812 -14.46875 22.6875 -14.46875 C 18.164062 -14.34375 14.46875 -14.050781 11.59375 -13.59375 C 11.300781 -13.5625 11.15625 -13.460938 11.15625 -13.296875 C 11.15625 -13.242188 11.160156 -13.191406 11.171875 -13.140625 C 11.179688 -13.097656 11.113281 -13 10.96875 -12.84375 L 7.890625 -9.546875 C 7.765625 -9.421875 7.703125 -9.328125 7.703125 -9.265625 C 7.703125 -9.203125 7.722656 -9.171875 7.765625 -9.171875 C 7.816406 -9.171875 7.929688 -9.191406 8.109375 -9.234375 C 9.285156 -9.304688 10.367188 -9.34375 11.359375 -9.34375 C 12.359375 -9.34375 12.929688 -9.285156 13.078125 -9.171875 C 13.878906 -8.578125 14.347656 -8.1875 14.484375 -8 C 14.617188 -7.820312 14.6875 -7.679688 14.6875 -7.578125 C 14.6875 -7.335938 14.488281 -7.191406 14.09375 -7.140625 C 9.3125 -6.671875 6.726562 -6.4375 6.34375 -6.4375 C 5.96875 -6.445312 5.726562 -6.453125 5.625 -6.453125 C 5.332031 -6.453125 5.003906 -6.226562 4.640625 -5.78125 L 1.328125 -1.390625 C 1.234375 -1.242188 1.1875 -1.140625 1.1875 -1.078125 C 1.1875 -1.015625 1.222656 -0.984375 1.296875 -0.984375 C 1.367188 -0.984375 1.476562 -1.015625 1.625 -1.078125 C 3.320312 -1.359375 4.910156 -1.5 6.390625 -1.5 C 7.867188 -1.5 8.96875 -1.453125 9.6875 -1.359375 C 10.6875 -1.359375 11.753906 -0.625 12.890625 0.84375 C 12.984375 0.96875 13.03125 1.082031 13.03125 1.1875 C 13.03125 1.300781 12.894531 1.359375 12.625 1.359375 C 8.113281 1.359375 4.679688 1.445312 2.328125 1.625 C 2.242188 1.644531 2.128906 1.65625 1.984375 1.65625 C 1.203125 1.65625 0.664062 1.472656 0.375 1.109375 C 0.320312 1.003906 0.234375 0.953125 0.109375 0.953125 C -0.015625 0.953125 -0.125 1.015625 -0.21875 1.140625 C -0.320312 1.265625 -0.398438 1.328125 -0.453125 1.328125 C -0.515625 1.328125 -0.625 1.269531 -0.78125 1.15625 C -0.945312 1.050781 -1.113281 0.867188 -1.28125 0.609375 C -1.457031 0.347656 -1.546875 0.0703125 -1.546875 -0.21875 C -1.546875 -0.519531 -1.484375 -0.796875 -1.359375 -1.046875 C -1.242188 -1.304688 -1.09375 -1.632812 -0.90625 -2.03125 C -0.71875 -2.425781 -0.296875 -3.109375 0.359375 -4.078125 C 1.023438 -5.046875 1.71875 -5.875 2.4375 -6.5625 C 2.53125 -6.65625 2.578125 -6.742188 2.578125 -6.828125 C 2.578125 -6.910156 2.484375 -6.953125 2.296875 -6.953125 C 2.109375 -6.953125 1.914062 -7.019531 1.71875 -7.15625 C 1.53125 -7.289062 1.4375 -7.476562 1.4375 -7.71875 C 1.4375 -7.96875 1.753906 -8.171875 2.390625 -8.328125 L 3.859375 -8.71875 C 3.867188 -8.71875 3.875 -8.71875 3.875 -8.71875 C 4.164062 -8.71875 4.457031 -8.90625 4.75 -9.28125 C 6.84375 -11.320312 8.128906 -12.460938 8.609375 -12.703125 C 8.765625 -12.804688 8.84375 -12.890625 8.84375 -12.953125 C 8.84375 -13.015625 8.785156 -13.046875 8.671875 -13.046875 C 8.566406 -13.046875 8.476562 -13.039062 8.40625 -13.03125 C 6.726562 -12.757812 5.390625 -12.625 4.390625 -12.625 C 3.398438 -12.625 2.675781 -12.664062 2.21875 -12.75 C 1.769531 -12.84375 1.4375 -12.953125 1.21875 -13.078125 C 0.75 -13.390625 0.5 -13.632812 0.46875 -13.8125 Z M 0.4375 -13.953125 "/></g></g></g><g fill="#000000" fill-opacity="1"><g transform="translate(86.106782, 86.310097)"><g><path d="M 4.5 -8.3125 C 4.863281 -8.738281 5.144531 -8.953125 5.34375 -8.953125 C 5.539062 -8.953125 5.785156 -8.898438 6.078125 -8.796875 C 6.367188 -8.703125 6.515625 -8.5625 6.515625 -8.375 C 6.515625 -8.1875 6.425781 -8 6.25 -7.8125 C 4.363281 -5.863281 2.992188 -4.101562 2.140625 -2.53125 C 1.984375 -2.1875 1.90625 -1.929688 1.90625 -1.765625 C 1.90625 -1.597656 1.945312 -1.515625 2.03125 -1.515625 C 2.375 -1.515625 3.117188 -2.007812 4.265625 -3 C 5.421875 -4 6.554688 -5.207031 7.671875 -6.625 C 8.785156 -8.050781 9.382812 -9.242188 9.46875 -10.203125 C 9.46875 -10.515625 9.515625 -10.671875 9.609375 -10.671875 C 9.660156 -10.671875 9.722656 -10.597656 9.796875 -10.453125 C 10.191406 -9.796875 10.390625 -9.21875 10.390625 -8.71875 C 10.390625 -7.757812 9.785156 -6.535156 8.578125 -5.046875 C 7.367188 -3.566406 6 -2.273438 4.46875 -1.171875 C 2.9375 -0.078125 1.710938 0.46875 0.796875 0.46875 C -0.109375 0.46875 -0.5625 0.015625 -0.5625 -0.890625 C -0.5625 -1.328125 -0.382812 -1.882812 -0.03125 -2.5625 C 0.3125 -3.238281 0.726562 -3.90625 1.21875 -4.5625 C 2.226562 -5.882812 3.144531 -6.953125 3.96875 -7.765625 Z M 4.5 -8.3125 "/></g></g></g><g fill="#000000" fill-opacity="1"><g transform="translate(93.976517, 86.310097)"><g><path d="M 8.40625 -8.203125 C 7.9375 -8.203125 7.140625 -7.71875 6.015625 -6.75 C 4.898438 -5.78125 4.34375 -5.1875 4.34375 -4.96875 C 4.34375 -4.925781 4.367188 -4.90625 4.421875 -4.90625 C 4.816406 -4.90625 5.609375 -5.347656 6.796875 -6.234375 C 7.984375 -7.128906 8.578125 -7.738281 8.578125 -8.0625 C 8.578125 -8.15625 8.519531 -8.203125 8.40625 -8.203125 Z M 2.625 0.484375 C 1.238281 0.484375 0.546875 -0.363281 0.546875 -2.0625 C 0.546875 -3.125 1.007812 -4.257812 1.9375 -5.46875 C 2.875 -6.675781 3.972656 -7.660156 5.234375 -8.421875 C 6.503906 -9.191406 7.628906 -9.578125 8.609375 -9.578125 C 9.035156 -9.578125 9.4375 -9.40625 9.8125 -9.0625 C 10.1875 -8.71875 10.375 -8.382812 10.375 -8.0625 C 10.375 -7.46875 9.945312 -6.789062 9.09375 -6.03125 C 8.238281 -5.28125 7.34375 -4.675781 6.40625 -4.21875 C 5.476562 -3.757812 4.863281 -3.53125 4.5625 -3.53125 C 4.269531 -3.53125 4.050781 -3.664062 3.90625 -3.9375 C 3.832031 -3.988281 3.734375 -4.015625 3.609375 -4.015625 C 3.484375 -4.015625 3.273438 -3.773438 2.984375 -3.296875 C 2.691406 -2.816406 2.546875 -2.425781 2.546875 -2.125 C 2.546875 -1.832031 2.65625 -1.648438 2.875 -1.578125 C 4.25 -1.578125 5.738281 -1.976562 7.34375 -2.78125 C 8.957031 -3.582031 11.1875 -5 14.03125 -7.03125 C 14.226562 -7.175781 14.53125 -7.390625 14.9375 -7.671875 C 15.34375 -7.960938 15.582031 -8.140625 15.65625 -8.203125 C 15.820312 -8.066406 15.90625 -7.910156 15.90625 -7.734375 C 15.90625 -7.554688 15.820312 -7.394531 15.65625 -7.25 C 14.75 -6.34375 13.578125 -5.328125 12.140625 -4.203125 C 10.703125 -3.085938 9.050781 -2.023438 7.1875 -1.015625 C 5.320312 -0.015625 3.800781 0.484375 2.625 0.484375 Z M 2.625 0.484375 "/></g></g></g><g fill="#000000" fill-opacity="1"><g transform="translate(103.854392, 86.310097)"><g><path d="M 5.9375 -8.984375 C 6.082031 -8.984375 6.320312 -8.910156 6.65625 -8.765625 C 7 -8.617188 7.171875 -8.457031 7.171875 -8.28125 C 7.171875 -8.15625 7.125 -8.023438 7.03125 -7.890625 L 5 -5.078125 C 4.757812 -4.785156 4.640625 -4.617188 4.640625 -4.578125 C 4.640625 -4.546875 4.648438 -4.53125 4.671875 -4.53125 L 4.796875 -4.609375 C 6.898438 -6.078125 8.628906 -7.363281 9.984375 -8.46875 C 10.242188 -8.644531 10.457031 -8.734375 10.625 -8.734375 C 10.800781 -8.734375 10.914062 -8.71875 10.96875 -8.6875 L 11.71875 -8.46875 C 11.90625 -8.375 12 -8.253906 12 -8.109375 C 12 -7.960938 11.960938 -7.847656 11.890625 -7.765625 C 11.546875 -7.378906 11.148438 -6.945312 10.703125 -6.46875 C 10.265625 -5.988281 9.9375 -5.625 9.71875 -5.375 C 9.5 -5.132812 9.253906 -4.859375 8.984375 -4.546875 C 8.710938 -4.242188 8.515625 -4.007812 8.390625 -3.84375 C 8.273438 -3.6875 8.144531 -3.503906 8 -3.296875 C 7.863281 -3.085938 7.765625 -2.910156 7.703125 -2.765625 C 7.597656 -2.347656 7.546875 -1.988281 7.546875 -1.6875 C 7.546875 -1.519531 7.648438 -1.4375 7.859375 -1.4375 C 8.066406 -1.4375 8.445312 -1.5625 9 -1.8125 C 9.550781 -2.070312 10.207031 -2.460938 10.96875 -2.984375 C 11.738281 -3.503906 12.757812 -4.25 14.03125 -5.21875 C 15.3125 -6.1875 16.429688 -7.007812 17.390625 -7.6875 C 17.554688 -7.550781 17.640625 -7.394531 17.640625 -7.21875 C 17.640625 -7.039062 17.554688 -6.878906 17.390625 -6.734375 C 16.816406 -6.171875 16.085938 -5.46875 15.203125 -4.625 C 14.316406 -3.78125 12.960938 -2.648438 11.140625 -1.234375 C 9.316406 0.171875 8.046875 0.875 7.328125 0.875 C 5.929688 0.875 5.234375 0.128906 5.234375 -1.359375 C 5.234375 -1.921875 5.453125 -2.507812 5.890625 -3.125 L 7.0625 -4.71875 C 7.164062 -4.882812 7.21875 -4.976562 7.21875 -5 C 7.21875 -5.03125 7.164062 -5 7.0625 -4.90625 C 3.90625 -2.289062 1.894531 -0.753906 1.03125 -0.296875 C 0.882812 -0.203125 0.703125 -0.15625 0.484375 -0.15625 C -0.109375 -0.15625 -0.40625 -0.429688 -0.40625 -0.984375 C -0.40625 -1.160156 -0.359375 -1.320312 -0.265625 -1.46875 C 1.066406 -2.695312 2.003906 -3.703125 2.546875 -4.484375 C 2.984375 -4.910156 3.441406 -5.515625 3.921875 -6.296875 C 4.398438 -7.078125 4.804688 -7.71875 5.140625 -8.21875 C 5.472656 -8.726562 5.738281 -8.984375 5.9375 -8.984375 Z M 5.9375 -8.984375 "/></g></g></g><g fill="#000000" fill-opacity="1"><g transform="translate(116.337422, 86.310097)"><g><path d="M 12.453125 -12.53125 L 13.84375 -12.5625 C 15.632812 -12.5625 16.9375 -12.3125 17.75 -11.8125 C 18.144531 -11.675781 18.34375 -11.507812 18.34375 -11.3125 C 18.34375 -11.164062 18.164062 -11.066406 17.8125 -11.015625 C 17.457031 -10.960938 16.234375 -10.820312 14.140625 -10.59375 C 12.054688 -10.375 10.628906 -10.242188 9.859375 -10.203125 C 9.515625 -10.179688 8.722656 -9.582031 7.484375 -8.40625 C 6.242188 -7.238281 5.0625 -5.945312 3.9375 -4.53125 C 2.8125 -3.125 2.25 -2.140625 2.25 -1.578125 C 2.25 -1.484375 2.296875 -1.40625 2.390625 -1.34375 C 2.484375 -1.28125 2.597656 -1.25 2.734375 -1.25 C 2.867188 -1.25 3.078125 -1.300781 3.359375 -1.40625 C 6.796875 -3.4375 10.132812 -5.65625 13.375 -8.0625 C 13.539062 -7.9375 13.625 -7.78125 13.625 -7.59375 C 13.625 -7.414062 13.53125 -7.238281 13.34375 -7.0625 C 13.164062 -6.894531 12.898438 -6.644531 12.546875 -6.3125 C 12.191406 -5.988281 11.535156 -5.398438 10.578125 -4.546875 C 9.617188 -3.703125 8.71875 -2.945312 7.875 -2.28125 C 5.59375 -0.4375 4 0.628906 3.09375 0.921875 C 2.769531 1.015625 2.382812 1.0625 1.9375 1.0625 C 1.5 1.0625 1.09375 0.832031 0.71875 0.375 C 0.34375 -0.0703125 0.15625 -0.679688 0.15625 -1.453125 C 0.15625 -2.234375 0.65625 -3.359375 1.65625 -4.828125 C 2.664062 -6.296875 4.039062 -7.800781 5.78125 -9.34375 C 5.945312 -9.46875 6.03125 -9.582031 6.03125 -9.6875 C 6.03125 -9.800781 5.835938 -9.859375 5.453125 -9.859375 L 3.75 -9.796875 C 1.34375 -9.796875 0.101562 -10.066406 0.03125 -10.609375 C -0.53125 -10.722656 -0.8125 -10.882812 -0.8125 -11.09375 C -0.8125 -11.164062 -0.773438 -11.207031 -0.703125 -11.21875 C -0.628906 -11.226562 -0.566406 -11.238281 -0.515625 -11.25 C -0.460938 -11.257812 -0.367188 -11.269531 -0.234375 -11.28125 C -0.109375 -11.300781 0.882812 -11.445312 2.75 -11.71875 C 4.625 -11.988281 6.753906 -12.21875 9.140625 -12.40625 L 11.015625 -14.90625 C 11.128906 -15.113281 11.507812 -15.21875 12.15625 -15.21875 C 12.8125 -15.21875 13.140625 -15.082031 13.140625 -14.8125 C 13.140625 -14.726562 13.066406 -14.566406 12.921875 -14.328125 L 12.234375 -13.375 C 12.148438 -13.09375 12.097656 -12.878906 12.078125 -12.734375 C 12.078125 -12.597656 12.203125 -12.53125 12.453125 -12.53125 Z M 12.453125 -12.53125 "/></g></g></g></svg>